<svg version="1.1" viewBox="0.0 0.0 960.0 960.0" fill="none" stroke="none" stroke-linecap="square" stroke-miterlimit="10" xmlns:xlink="http://www.w3.org/1999/xlink" xmlns="http://www.w3.org/2000/svg"><clipPath id="p.0"><path d="m0 0l960.0 0l0 960.0l-960.0 0l0 -960.0z" clip-rule="nonzero"/></clipPath><g clip-path="url(#p.0)"><path fill="#000000" fill-opacity="0.0" d="m0 0l960.0 0l0 960.0l-960.0 0z" fill-rule="evenodd"/><path fill="#eaf8e5" d="m11.396161 159.66986c0 -81.88838 66.383644 -148.27203 148.27202 -148.27203l640.22644 0c39.324158 0 77.03778 15.621472 104.84418 43.42787c27.806396 27.806396 43.427856 65.51997 43.427856 104.84416l0 640.2264c0 81.88837 -66.38367 148.27203 -148.27203 148.27203l-640.22644 0c-81.888374 0 -148.27202 -66.38367 -148.27202 -148.27203z" fill-rule="evenodd"/><path stroke="#434343" stroke-width="18.79790026246719" stroke-linejoin="round" stroke-linecap="butt" d="m11.396161 159.66986c0 -81.88838 66.383644 -148.27203 148.27202 -148.27203l640.22644 0c39.324158 0 77.03778 15.621472 104.84418 43.42787c27.806396 27.806396 43.427856 65.51997 43.427856 104.84416l0 640.2264c0 81.88837 -66.38367 148.27203 -148.27203 148.27203l-640.22644 0c-81.888374 0 -148.27202 -66.38367 -148.27202 -148.27203z" fill-rule="evenodd"/><path fill="#000000" fill-opacity="0.0" d="m660.9077 662.1246l150.11761 -150.11768" fill-rule="evenodd"/><path stroke="#434343" stroke-width="18.79790026246719" stroke-linejoin="round" stroke-linecap="butt" d="m660.9077 662.1246l150.11761 -150.11768" fill-rule="evenodd"/><path fill="#000000" fill-opacity="0.0" d="m799.7626 509.0325l145.43054 145.43051" fill-rule="evenodd"/><path stroke="#434343" stroke-width="18.79790026246719" stroke-linejoin="round" stroke-linecap="butt" d="m799.7626 509.0325l145.43054 145.43051" fill-rule="evenodd"/><path fill="#ffe599" d="m526.4153 253.18292c0 -71.198975 57.7182 -128.91714 128.91718 -128.91714c34.190918 0 66.98151 13.582306 91.1582 37.758957c24.176636 24.176651 37.75891 56.96724 37.75891 91.15819c0 71.198975 -57.71814 128.91714 -128.91711 128.91714c-71.198975 0 -128.91718 -57.71817 -128.91718 -128.91714z" fill-rule="evenodd"/><path stroke="#434343" stroke-width="18.79790026246719" stroke-linejoin="round" stroke-linecap="butt" d="m526.4153 253.18292c0 -71.198975 57.7182 -128.91714 128.91718 -128.91714c34.190918 0 66.98151 13.582306 91.1582 37.758957c24.176636 24.176651 37.75891 56.96724 37.75891 91.15819c0 71.198975 -57.71814 128.91714 -128.91711 128.91714c-71.198975 0 -128.91718 -57.71817 -128.91718 -128.91714z" fill-rule="evenodd"/><path fill="#000000" fill-opacity="0.0" d="m12.604104 762.1451l380.0463 -380.04626" fill-rule="evenodd"/><path stroke="#434343" stroke-width="18.79790026246719" stroke-linejoin="round" stroke-linecap="butt" d="m12.604104 762.1451l380.0463 -380.04626" fill-rule="evenodd"/><path fill="#000000" fill-opacity="0.0" d="m381.5735 382.09882l458.94592 458.94592" fill-rule="evenodd"/><path stroke="#434343" stroke-width="18.79790026246719" stroke-linejoin="round" stroke-linecap="butt" d="m381.5735 382.09882l458.94592 458.94592" fill-rule="evenodd"/></g></svg>
