<svg version="1.1" viewBox="0.0 0.0 960.0 960.0" fill="none" stroke="none" stroke-linecap="square" stroke-miterlimit="10" xmlns:xlink="http://www.w3.org/1999/xlink" xmlns="http://www.w3.org/2000/svg"><clipPath id="g3e2d9754d22_0_33.0"><path d="m0 0l960.0 0l0 960.0l-960.0 0l0 -960.0z" clip-rule="nonzero"/></clipPath><g clip-path="url(#g3e2d9754d22_0_33.0)"><path fill="#000000" fill-opacity="0.0" d="m0 0l960.0 0l0 960.0l-960.0 0z" fill-rule="evenodd"/><defs><linearGradient id="g3e2d9754d22_0_33.1" gradientUnits="userSpaceOnUse" gradientTransform="matrix(30.606830160420373 0.0 0.0 30.606830160420373 0.0 0.0)" spreadMethod="pad" x1="0.3723404664119688" y1="0.3722841481812363" x2="0.37222967233128607" y2="30.979114308401076"><stop offset="0.0" stop-color="#d4e5f5"/><stop offset="0.78" stop-color="#a2c5e5"/><stop offset="1.0" stop-color="#70a4d5"/></linearGradient></defs><path fill="url(#g3e2d9754d22_0_33.1)" d="m11.396161 159.67052c0 -81.88875 66.38394 -148.27269 148.27267 -148.27269l640.22925 0c39.32434 0 77.038086 15.621541 104.844604 43.428066c27.806519 27.806522 43.4281 65.52026 43.4281 104.84462l0 640.2292c0 81.888794 -66.38397 148.2727 -148.2727 148.2727l-640.22925 0c-81.88873 0 -148.27267 -66.38391 -148.27267 -148.2727z" fill-rule="evenodd"/><path stroke="#434343" stroke-width="3.0" stroke-linejoin="round" stroke-linecap="butt" d="m11.396161 159.67052c0 -81.88875 66.38394 -148.27269 148.27267 -148.27269l640.22925 0c39.32434 0 77.038086 15.621541 104.844604 43.428066c27.806519 27.806522 43.4281 65.52026 43.4281 104.84462l0 640.2292c0 81.888794 -66.38397 148.2727 -148.2727 148.2727l-640.22925 0c-81.88873 0 -148.27267 -66.38391 -148.27267 -148.2727z" fill-rule="evenodd"/><path fill="#ffe599" d="m526.4153 253.19023c0 -71.203 57.721436 -128.92445 128.9245 -128.92445c34.19287 0 66.98529 13.583069 91.16333 37.76111c24.17804 24.178024 37.76111 56.97046 37.76111 91.163345c0 71.20302 -57.721436 128.92445 -128.92444 128.92445c-71.203064 0 -128.9245 -57.721436 -128.9245 -128.92445z" fill-rule="evenodd"/><path fill="#3d85c6" d="m14.133859 758.7706l373.41995 -377.21524l274.6824 273.41733l143.03937 -144.30444l143.03674 141.77167l-1.2650757 168.35431l-8.860901 29.115479l-12.658752 22.78479l-16.456726 21.519653l-18.986877 18.986877l-30.380554 16.454102l-20.252014 8.860901l-21.519653 6.3306885l-667.0866 -1.2677002l-27.850388 -3.795288l-12.656166 -6.3306885l-13.923889 -2.5302124l-16.456688 -10.128601l-18.986877 -15.188965l-17.721786 -17.721802l-8.860893 -15.188965l-8.860891 -20.254578l-5.062992 -16.454102l-6.3307085 -21.519653l-2.5301838 -21.519714z" fill-rule="evenodd"/><path fill="#000000" fill-opacity="0.0" d="m10.035981 165.17574c0 -85.6809 69.45809 -155.13899 155.13899 -155.13899l629.2181 0c41.145386 0 80.60559 16.344954 109.69983 45.439156c29.094177 29.094204 45.439148 68.55441 45.439148 109.69983l0 629.2181c0 85.68091 -69.45807 155.13904 -155.13898 155.13904l-629.2181 0c-85.6809 0 -155.13899 -69.45813 -155.13899 -155.13904z" fill-rule="evenodd"/><path stroke="#666666" stroke-width="12.0" stroke-linejoin="round" stroke-linecap="butt" d="m10.035981 165.17574c0 -85.6809 69.45809 -155.13899 155.13899 -155.13899l629.2181 0c41.145386 0 80.60559 16.344954 109.69983 45.439156c29.094177 29.094204 45.439148 68.55441 45.439148 109.69983l0 629.2181c0 85.68091 -69.45807 155.13904 -155.13898 155.13904l-629.2181 0c-85.6809 0 -155.13899 -69.45813 -155.13899 -155.13904z" fill-rule="evenodd"/></g></svg>